<?xml version="1.0" encoding="UTF-8"?>
<svg xmlns="http://www.w3.org/2000/svg" version="1.1" xmlns:inkscape="http://www.inkscape.org/namespaces/inkscape" xmlns:sodipodi="http://sodipodi.sourceforge.net/DTD/sodipodi-0.dtd" xmlns:svg="http://www.w3.org/2000/svg" viewBox="0 0 1333.3 1333.3">
  <defs>
    <style>
      .cls-1 {
        fill: #454746;
      }
    </style>
  </defs>
  <!-- Generator: Adobe Illustrator 28.7.1, SVG Export Plug-In . SVG Version: 1.2.0 Build 142)  -->
  <g>
    <g id="svg1" sodipodi:docname="PDF.pdf">
      <sodipodi:namedview id="namedview1" bordercolor="#000000" borderopacity="0.25" inkscape:deskcolor="#d1d1d1" inkscape:pagecheckerboard="0" inkscape:pageopacity="0.0" inkscape:showpageshadow="2" pagecolor="#ffffff">
        <inkscape:page id="page1" x="0" y="0" width="1333.3333" height="1333.3333" bleed="0" inkscape:label="1" margin="0"/>
      </sodipodi:namedview>
      <path id="path20" class="cls-1" d="M1206.4,220.5l-72.2,269.2c-5,18.7-24.2,29.8-43,24.9l-269.2-72.2c-18.7-5-29.8-24.2-24.9-43l.9-3.3c6.3-23.4-11.3-46.4-35.6-46.4h-250.8c-16.7,0-31.3,11.2-35.6,27.3l-27.8,103.6c-5,18.7-24.2,29.8-42.9,24.9l-269.2-72.2c-18.7-5-29.8-24.2-24.9-43L183.4,121c5-18.7,24.2-29.8,43-24.9l269.2,72.2c18.8,5,29.8,24.2,24.9,42.9l-5.8,21.7c-6.3,23.4,11.4,46.4,35.6,46.4h250.8c16.7,0,31.3-11.2,35.6-27.3l32.7-121.8c5-18.8,24.2-29.8,42.9-24.9l269.2,72.2c18.7,5,29.8,24.2,24.9,42.9"/>
      <path class="cls-1" d="M798.8,1028.4h-280c-22.8,11.6-29.1,34.9-29.1,62.2v42c0,19.4-15.7,35.1-35.1,35.1H175.9c-19.4,0-35.1-15.7-35.1-35.1v-278.7c0-19.4,15.7-35.1,35.1-35.1h278.7c19.4,0,35.1,15.7,35.1,35.1v42c0,27.1,6.6,50.6,29.1,62.2h0s280.5,0,280.5,0h0c22.2-11.8,28.3-35.2,28.3-62.1v-42c0-19.4,15.7-35.1,35.1-35.1h278.7c19.4,0,35.1,15.7,35.1,35.1v278.7c0,19.4-15.7,35.1-35.1,35.1h-278.7c-19.4,0-35.1-15.7-35.1-35.1v-42c0-26.7-6.9-50.6-28.9-62.3"/>
    </g>
  </g>
</svg>