<?xml version="1.0" encoding="UTF-8"?>
<svg xmlns="http://www.w3.org/2000/svg" version="1.1" viewBox="0 0 127.1 96.4">
  <!-- Generator: Adobe Illustrator 28.7.1, SVG Export Plug-In . SVG Version: 1.2.0 Build 142)  -->
  <g>
    <g id="Layer_1">
      <path d="M83,17.3c-6.4-2.9-13.2-5-20.2-6.2-1,1.7-1.8,3.5-2.6,5.3-7.4-1.1-15-1.1-22.4,0-.8-1.8-1.6-3.6-2.6-5.3-7,1.2-13.8,3.3-20.2,6.2C2.1,36.2-1.3,54.7.4,72.9H.4c7.5,5.5,15.9,9.7,24.8,12.4,2-2.7,3.8-5.6,5.3-8.6-2.9-1.1-5.7-2.4-8.4-4,.7-.5,1.4-1,2-1.5,15.7,7.4,33.9,7.4,49.6,0,.7.5,1.4,1.1,2,1.5-2.7,1.6-5.5,2.9-8.4,4,1.5,3,3.3,5.9,5.3,8.6,8.9-2.7,17.3-6.9,24.8-12.4h0c2-21.1-3.5-39.4-14.6-55.6ZM32.7,61.7c-4.8,0-8.8-4.4-8.8-9.8s3.9-9.8,8.8-9.8,8.9,4.4,8.8,9.8-3.9,9.8-8.8,9.8ZM65.3,61.7c-4.8,0-8.8-4.4-8.8-9.8s3.9-9.8,8.8-9.8,8.9,4.4,8.8,9.8-3.9,9.8-8.8,9.8Z"/>
    </g>
  </g>
</svg>